<svg width="40" height="40" viewBox="0 0 40 40" fill="none" xmlns="http://www.w3.org/2000/svg">
<circle cx="20" cy="20" r="20" fill="#4249F4"/>
<path fill-rule="evenodd" clip-rule="evenodd" d="M18.0172 28.0036C18.0224 28.1265 18.0092 28.2464 17.9833 28.3677C17.9378 28.5809 17.8501 28.8065 17.7258 29.015C17.3726 29.6075 16.7725 30.0029 16 30.0029C14.1801 30.0029 13.4658 29.1101 12.5715 26.8743C11.9658 25.3601 11.6801 25.0029 11 25.0029L11 23.0029C12.8199 23.0029 13.5342 23.8958 14.4285 26.1315C15.0342 27.6458 15.3199 28.0029 16 28.0029C16 27.7128 15.996 27.4557 15.9877 27.1077C15.9681 26.2919 15.9658 26.1253 16.0014 25.9072C16.0156 25.4311 16.1385 25.0933 16.385 24.7581C14.1532 24.2722 12.6479 23.2689 11.784 21.6414L11.4603 20.8803C11.145 19.9742 11 18.9475 11 17.7618C11 16.3963 11.4163 15.1753 12.194 14.1547C11.9514 13.1845 11.9847 11.9992 12.5203 10.6606L12.6953 10.2232L13.1441 10.0797C13.2041 10.0604 13.2772 10.0431 13.363 10.0296C14.2368 9.89248 15.4801 10.2197 17.1055 11.2608C18.0638 11.0387 19.0728 10.9266 20.0888 10.9266C20.9966 10.9266 21.8995 11.0181 22.7616 11.1985C24.3431 10.2082 25.5522 9.8976 26.4025 10.0298C26.4873 10.043 26.5596 10.06 26.6192 10.0789L27.0707 10.2221L27.246 10.6622C27.7146 11.8389 27.795 12.9234 27.6245 13.8723C28.5185 14.945 29 16.2638 29 17.7618C29 19.0248 28.9095 19.9744 28.6494 20.8983L28.3749 21.6517C27.6563 23.2774 26.0715 24.292 23.6275 24.7752C23.8816 25.127 24 25.484 24 26.0029V27.0029C24 27.4875 24 27.5025 23.9989 28.0029C24.0012 28.0389 24.0042 28.0565 24.0074 28.0674C24.0066 28.0677 24 30.0029 24 30.0029C23.1482 30.0029 22.5149 29.5875 22.2034 28.9323C22.0419 28.5925 21.9936 28.2681 22 27.9887V26.0029C22 25.9191 21.9971 25.9142 21.7929 25.71C21.2471 25.1642 21 24.7524 21 24.0029V23.0983L21.9001 23.0079C24.5793 22.7389 26.0365 21.9948 26.5197 20.9078L26.7455 20.2906C26.9251 19.6452 27 18.8593 27 17.7618C27 16.5957 26.5929 15.6325 25.823 14.8629L25.3998 14.4398L25.5725 13.867C25.726 13.358 25.7624 12.7558 25.6001 12.0689C25.5731 12.0757 25.5451 12.0832 25.516 12.0913C24.9805 12.2404 24.312 12.5602 23.5064 13.0987L23.139 13.3443L22.7101 13.2379C21.8804 13.0322 20.9889 12.9266 20.0888 12.9266C19.0879 12.9266 18.0985 13.0539 17.1845 13.3031L16.7384 13.4247L16.3568 13.1637C15.5236 12.5937 14.8315 12.2547 14.2764 12.0964C14.2368 12.0851 14.199 12.0749 14.1632 12.0659C13.9695 12.8609 14.0461 13.5141 14.2422 14.0042L14.4774 14.5918L14.0469 15.0558C13.3609 15.7952 13 16.695 13 17.7618C13 18.7386 13.1143 19.548 13.3239 20.1576L13.5856 20.7771C14.2397 22.0046 15.6292 22.7431 18.1066 23.0086L19 23.1044V24.0029C19 24.7524 18.7529 25.1642 18.2071 25.71C18.0029 25.9142 18 25.9191 18 26.0029L17.9828 26.1878C17.9714 26.2484 17.9714 26.405 17.9871 27.0596C17.9943 27.3607 17.9984 27.599 17.9996 27.848C18.0116 27.8996 18.0134 27.9328 18.0172 28.0036Z" fill="white"/>
</svg>
